<mxfile host="app.diagrams.net" agent="Mozilla/5.0 (Macintosh; Intel Mac OS X 10_15_7) AppleWebKit/537.36 (KHTML, like Gecko) Chrome/128.0.0.0 Safari/537.36" version="24.7.8">
  <diagram name="Page-1" id="fdeDV-akWxHPa7tqSRYI">
    <mxGraphModel dx="965" dy="694" grid="1" gridSize="10" guides="0" tooltips="1" connect="1" arrows="1" fold="1" page="1" pageScale="1" pageWidth="827" pageHeight="1169" background="#ffffff" math="0" shadow="0">
      <root>
        <mxCell id="0" />
        <mxCell id="1" parent="0" />
        <mxCell id="_FZ4FKYjwLCIZygCdRig-2" value="AWS Account" style="points=[[0,0],[0.25,0],[0.5,0],[0.75,0],[1,0],[1,0.25],[1,0.5],[1,0.75],[1,1],[0.75,1],[0.5,1],[0.25,1],[0,1],[0,0.75],[0,0.5],[0,0.25]];outlineConnect=0;gradientColor=none;html=1;whiteSpace=wrap;fontSize=12;fontStyle=0;container=1;pointerEvents=0;collapsible=0;recursiveResize=0;shape=mxgraph.aws4.group;grIcon=mxgraph.aws4.group_account;strokeColor=#CD2264;fillColor=none;verticalAlign=top;align=left;spacingLeft=30;fontColor=#CD2264;dashed=0;" vertex="1" parent="1">
          <mxGeometry x="110" y="110" width="780" height="660" as="geometry" />
        </mxCell>
        <mxCell id="_FZ4FKYjwLCIZygCdRig-8" value="VPC" style="points=[[0,0],[0.25,0],[0.5,0],[0.75,0],[1,0],[1,0.25],[1,0.5],[1,0.75],[1,1],[0.75,1],[0.5,1],[0.25,1],[0,1],[0,0.75],[0,0.5],[0,0.25]];outlineConnect=0;gradientColor=none;html=1;whiteSpace=wrap;fontSize=12;fontStyle=0;container=1;pointerEvents=0;collapsible=0;recursiveResize=0;shape=mxgraph.aws4.group;grIcon=mxgraph.aws4.group_vpc2;strokeColor=#8C4FFF;fillColor=none;verticalAlign=top;align=left;spacingLeft=30;fontColor=#AAB7B8;dashed=0;" vertex="1" parent="_FZ4FKYjwLCIZygCdRig-2">
          <mxGeometry x="100" y="30" width="660" height="610" as="geometry" />
        </mxCell>
        <mxCell id="_FZ4FKYjwLCIZygCdRig-74" value="Availability zone" style="sketch=0;outlineConnect=0;gradientColor=none;html=1;whiteSpace=wrap;fontSize=12;fontStyle=0;shape=mxgraph.aws4.group;grIcon=mxgraph.aws4.group_availability_zone;strokeColor=#545B64;fillColor=none;verticalAlign=top;align=left;spacingLeft=30;fontColor=#545B64;dashed=1;" vertex="1" parent="_FZ4FKYjwLCIZygCdRig-8">
          <mxGeometry x="390" y="30" width="250" height="550" as="geometry" />
        </mxCell>
        <mxCell id="_FZ4FKYjwLCIZygCdRig-9" value="Availability zone" style="sketch=0;outlineConnect=0;gradientColor=none;html=1;whiteSpace=wrap;fontSize=12;fontStyle=0;shape=mxgraph.aws4.group;grIcon=mxgraph.aws4.group_availability_zone;strokeColor=#545B64;fillColor=none;verticalAlign=top;align=left;spacingLeft=30;fontColor=#545B64;dashed=1;" vertex="1" parent="_FZ4FKYjwLCIZygCdRig-8">
          <mxGeometry x="40" y="30" width="250" height="550" as="geometry" />
        </mxCell>
        <mxCell id="_FZ4FKYjwLCIZygCdRig-11" value="Public subnet" style="points=[[0,0],[0.25,0],[0.5,0],[0.75,0],[1,0],[1,0.25],[1,0.5],[1,0.75],[1,1],[0.75,1],[0.5,1],[0.25,1],[0,1],[0,0.75],[0,0.5],[0,0.25]];outlineConnect=0;gradientColor=none;html=1;whiteSpace=wrap;fontSize=12;fontStyle=1;container=1;pointerEvents=0;collapsible=0;recursiveResize=0;shape=mxgraph.aws4.group;grIcon=mxgraph.aws4.group_security_group;grStroke=0;strokeColor=#7AA116;fillColor=#F2F6E8;verticalAlign=top;align=left;spacingLeft=30;fontColor=#248814;dashed=0;" vertex="1" parent="_FZ4FKYjwLCIZygCdRig-8">
          <mxGeometry x="40" y="60" width="250" height="240" as="geometry" />
        </mxCell>
        <mxCell id="_FZ4FKYjwLCIZygCdRig-42" value="" style="outlineConnect=0;dashed=0;verticalLabelPosition=bottom;verticalAlign=top;align=center;html=1;shape=mxgraph.aws3.classic_load_balancer;fillColor=#F58534;gradientColor=none;" vertex="1" parent="_FZ4FKYjwLCIZygCdRig-11">
          <mxGeometry x="20" y="57" width="40" height="42" as="geometry" />
        </mxCell>
        <mxCell id="_FZ4FKYjwLCIZygCdRig-44" value="Amazon EKS" style="sketch=0;outlineConnect=0;fontColor=#232F3E;gradientColor=none;strokeColor=#ffffff;fillColor=#232F3E;dashed=0;verticalLabelPosition=middle;verticalAlign=bottom;align=center;html=1;whiteSpace=wrap;fontSize=10;fontStyle=1;spacing=3;shape=mxgraph.aws4.productIcon;prIcon=mxgraph.aws4.eks;" vertex="1" parent="_FZ4FKYjwLCIZygCdRig-11">
          <mxGeometry x="130" y="40" width="50" height="76" as="geometry" />
        </mxCell>
        <mxCell id="_FZ4FKYjwLCIZygCdRig-46" style="edgeStyle=orthogonalEdgeStyle;rounded=0;orthogonalLoop=1;jettySize=auto;html=1;" edge="1" parent="_FZ4FKYjwLCIZygCdRig-11" source="_FZ4FKYjwLCIZygCdRig-42" target="_FZ4FKYjwLCIZygCdRig-44">
          <mxGeometry relative="1" as="geometry" />
        </mxCell>
        <mxCell id="_FZ4FKYjwLCIZygCdRig-22" value="Public subnet" style="points=[[0,0],[0.25,0],[0.5,0],[0.75,0],[1,0],[1,0.25],[1,0.5],[1,0.75],[1,1],[0.75,1],[0.5,1],[0.25,1],[0,1],[0,0.75],[0,0.5],[0,0.25]];outlineConnect=0;gradientColor=none;html=1;whiteSpace=wrap;fontSize=12;fontStyle=1;container=1;pointerEvents=0;collapsible=0;recursiveResize=0;shape=mxgraph.aws4.group;grIcon=mxgraph.aws4.group_security_group;grStroke=0;strokeColor=#7AA116;fillColor=#F2F6E8;verticalAlign=top;align=left;spacingLeft=30;fontColor=#248814;dashed=0;" vertex="1" parent="_FZ4FKYjwLCIZygCdRig-8">
          <mxGeometry x="390" y="60" width="250" height="240" as="geometry" />
        </mxCell>
        <mxCell id="_FZ4FKYjwLCIZygCdRig-43" value="" style="outlineConnect=0;dashed=0;verticalLabelPosition=bottom;verticalAlign=top;align=center;html=1;shape=mxgraph.aws3.classic_load_balancer;fillColor=#F58534;gradientColor=none;" vertex="1" parent="_FZ4FKYjwLCIZygCdRig-22">
          <mxGeometry x="20" y="57" width="40" height="42" as="geometry" />
        </mxCell>
        <mxCell id="_FZ4FKYjwLCIZygCdRig-13" value="Private subnet" style="points=[[0,0],[0.25,0],[0.5,0],[0.75,0],[1,0],[1,0.25],[1,0.5],[1,0.75],[1,1],[0.75,1],[0.5,1],[0.25,1],[0,1],[0,0.75],[0,0.5],[0,0.25]];outlineConnect=0;gradientColor=none;html=1;whiteSpace=wrap;fontSize=12;fontStyle=0;container=1;pointerEvents=0;collapsible=0;recursiveResize=0;shape=mxgraph.aws4.group;grIcon=mxgraph.aws4.group_security_group;grStroke=0;strokeColor=#00A4A6;fillColor=#E6F6F7;verticalAlign=top;align=left;spacingLeft=30;fontColor=#147EBA;dashed=0;" vertex="1" parent="_FZ4FKYjwLCIZygCdRig-8">
          <mxGeometry x="40" y="300" width="250" height="280" as="geometry" />
        </mxCell>
        <mxCell id="_FZ4FKYjwLCIZygCdRig-20" value="" style="strokeWidth=2;html=1;shape=mxgraph.flowchart.database;whiteSpace=wrap;" vertex="1" parent="_FZ4FKYjwLCIZygCdRig-13">
          <mxGeometry x="82.5" y="210" width="45" height="40" as="geometry" />
        </mxCell>
        <mxCell id="_FZ4FKYjwLCIZygCdRig-49" value="Amazon EKS" style="sketch=0;outlineConnect=0;fontColor=#232F3E;gradientColor=none;strokeColor=#ffffff;fillColor=#232F3E;dashed=0;verticalLabelPosition=middle;verticalAlign=bottom;align=center;html=1;whiteSpace=wrap;fontSize=10;fontStyle=1;spacing=3;shape=mxgraph.aws4.productIcon;prIcon=mxgraph.aws4.eks;" vertex="1" parent="_FZ4FKYjwLCIZygCdRig-8">
          <mxGeometry x="110" y="350" width="50" height="80" as="geometry" />
        </mxCell>
        <mxCell id="_FZ4FKYjwLCIZygCdRig-48" value="" style="outlineConnect=0;dashed=0;verticalLabelPosition=bottom;verticalAlign=top;align=center;html=1;shape=mxgraph.aws3.classic_load_balancer;fillColor=#F58534;gradientColor=none;" vertex="1" parent="_FZ4FKYjwLCIZygCdRig-8">
          <mxGeometry x="320" y="230" width="40" height="42" as="geometry" />
        </mxCell>
        <mxCell id="_FZ4FKYjwLCIZygCdRig-47" style="edgeStyle=orthogonalEdgeStyle;rounded=0;orthogonalLoop=1;jettySize=auto;html=1;" edge="1" parent="_FZ4FKYjwLCIZygCdRig-8" source="_FZ4FKYjwLCIZygCdRig-43" target="_FZ4FKYjwLCIZygCdRig-64">
          <mxGeometry relative="1" as="geometry">
            <mxPoint x="480" y="136" as="targetPoint" />
          </mxGeometry>
        </mxCell>
        <mxCell id="_FZ4FKYjwLCIZygCdRig-64" value="Amazon EKS" style="sketch=0;outlineConnect=0;fontColor=#232F3E;gradientColor=none;strokeColor=#ffffff;fillColor=#232F3E;dashed=0;verticalLabelPosition=middle;verticalAlign=bottom;align=center;html=1;whiteSpace=wrap;fontSize=10;fontStyle=1;spacing=3;shape=mxgraph.aws4.productIcon;prIcon=mxgraph.aws4.eks;" vertex="1" parent="_FZ4FKYjwLCIZygCdRig-8">
          <mxGeometry x="520" y="100" width="50" height="76" as="geometry" />
        </mxCell>
        <mxCell id="_FZ4FKYjwLCIZygCdRig-24" value="Private subnet" style="points=[[0,0],[0.25,0],[0.5,0],[0.75,0],[1,0],[1,0.25],[1,0.5],[1,0.75],[1,1],[0.75,1],[0.5,1],[0.25,1],[0,1],[0,0.75],[0,0.5],[0,0.25]];outlineConnect=0;gradientColor=none;html=1;whiteSpace=wrap;fontSize=12;fontStyle=0;container=1;pointerEvents=0;collapsible=0;recursiveResize=0;shape=mxgraph.aws4.group;grIcon=mxgraph.aws4.group_security_group;grStroke=0;strokeColor=#00A4A6;fillColor=#E6F6F7;verticalAlign=top;align=left;spacingLeft=30;fontColor=#147EBA;dashed=0;" vertex="1" parent="_FZ4FKYjwLCIZygCdRig-8">
          <mxGeometry x="390" y="300" width="250" height="280" as="geometry" />
        </mxCell>
        <mxCell id="_FZ4FKYjwLCIZygCdRig-26" value="" style="strokeWidth=2;html=1;shape=mxgraph.flowchart.database;whiteSpace=wrap;" vertex="1" parent="_FZ4FKYjwLCIZygCdRig-24">
          <mxGeometry x="85" y="210" width="45" height="40" as="geometry" />
        </mxCell>
        <mxCell id="_FZ4FKYjwLCIZygCdRig-50" value="Amazon EKS" style="sketch=0;outlineConnect=0;fontColor=#232F3E;gradientColor=none;strokeColor=#ffffff;fillColor=#232F3E;dashed=0;verticalLabelPosition=middle;verticalAlign=bottom;align=center;html=1;whiteSpace=wrap;fontSize=10;fontStyle=1;spacing=3;shape=mxgraph.aws4.productIcon;prIcon=mxgraph.aws4.eks;" vertex="1" parent="_FZ4FKYjwLCIZygCdRig-24">
          <mxGeometry x="80" y="50" width="50" height="80" as="geometry" />
        </mxCell>
        <mxCell id="_FZ4FKYjwLCIZygCdRig-72" value="" style="image;sketch=0;aspect=fixed;html=1;points=[];align=center;fontSize=12;image=img/lib/mscae/Docker.svg;" vertex="1" parent="_FZ4FKYjwLCIZygCdRig-24">
          <mxGeometry x="199" y="110" width="24.39" height="20" as="geometry" />
        </mxCell>
        <mxCell id="_FZ4FKYjwLCIZygCdRig-77" value="Frontend" style="rounded=0;whiteSpace=wrap;html=1;dashed=1;fillColor=none;align=left;verticalAlign=top;" vertex="1" parent="_FZ4FKYjwLCIZygCdRig-8">
          <mxGeometry x="50" y="90" width="580" height="90" as="geometry" />
        </mxCell>
        <mxCell id="_FZ4FKYjwLCIZygCdRig-88" value="" style="aspect=fixed;sketch=0;html=1;dashed=0;whitespace=wrap;verticalLabelPosition=bottom;verticalAlign=top;fillColor=#2875E2;strokeColor=#ffffff;points=[[0.005,0.63,0],[0.1,0.2,0],[0.9,0.2,0],[0.5,0,0],[0.995,0.63,0],[0.72,0.99,0],[0.5,1,0],[0.28,0.99,0]];shape=mxgraph.kubernetes.icon2;kubernetesLabel=1;prIcon=kubelet" vertex="1" parent="_FZ4FKYjwLCIZygCdRig-8">
          <mxGeometry x="250" y="110" width="29.17" height="28" as="geometry" />
        </mxCell>
        <mxCell id="_FZ4FKYjwLCIZygCdRig-7" value="Amazon API Gateway" style="sketch=0;outlineConnect=0;fontColor=#232F3E;gradientColor=none;strokeColor=#ffffff;fillColor=#232F3E;dashed=0;verticalLabelPosition=middle;verticalAlign=bottom;align=center;html=1;whiteSpace=wrap;fontSize=10;fontStyle=1;spacing=3;shape=mxgraph.aws4.productIcon;prIcon=mxgraph.aws4.api_gateway;" vertex="1" parent="_FZ4FKYjwLCIZygCdRig-2">
          <mxGeometry x="20" y="130" width="40" height="80" as="geometry" />
        </mxCell>
        <mxCell id="_FZ4FKYjwLCIZygCdRig-82" style="edgeStyle=orthogonalEdgeStyle;rounded=0;orthogonalLoop=1;jettySize=auto;html=1;entryX=-0.005;entryY=0.332;entryDx=0;entryDy=0;entryPerimeter=0;strokeWidth=2;" edge="1" parent="_FZ4FKYjwLCIZygCdRig-2" source="_FZ4FKYjwLCIZygCdRig-7" target="_FZ4FKYjwLCIZygCdRig-11">
          <mxGeometry relative="1" as="geometry" />
        </mxCell>
        <mxCell id="_FZ4FKYjwLCIZygCdRig-4" value="Actor" style="shape=umlActor;verticalLabelPosition=bottom;verticalAlign=top;html=1;outlineConnect=0;" vertex="1" parent="1">
          <mxGeometry x="40" y="250" width="30" height="40" as="geometry" />
        </mxCell>
        <mxCell id="_FZ4FKYjwLCIZygCdRig-69" style="edgeStyle=orthogonalEdgeStyle;rounded=0;orthogonalLoop=1;jettySize=auto;html=1;strokeWidth=2;" edge="1" parent="1">
          <mxGeometry relative="1" as="geometry">
            <mxPoint x="70" y="280" as="sourcePoint" />
            <mxPoint x="130" y="280" as="targetPoint" />
            <Array as="points">
              <mxPoint x="130" y="280" />
            </Array>
          </mxGeometry>
        </mxCell>
        <mxCell id="_FZ4FKYjwLCIZygCdRig-73" value="" style="image;sketch=0;aspect=fixed;html=1;points=[];align=center;fontSize=12;image=img/lib/mscae/Docker.svg;" vertex="1" parent="1">
          <mxGeometry x="809" y="290" width="24.39" height="20" as="geometry" />
        </mxCell>
        <mxCell id="_FZ4FKYjwLCIZygCdRig-75" value="" style="image;sketch=0;aspect=fixed;html=1;points=[];align=center;fontSize=12;image=img/lib/mscae/Docker.svg;" vertex="1" parent="1">
          <mxGeometry x="459" y="290" width="24.39" height="20" as="geometry" />
        </mxCell>
        <mxCell id="_FZ4FKYjwLCIZygCdRig-76" value="" style="image;sketch=0;aspect=fixed;html=1;points=[];align=center;fontSize=12;image=img/lib/mscae/Docker.svg;" vertex="1" parent="1">
          <mxGeometry x="449" y="550" width="24.39" height="20" as="geometry" />
        </mxCell>
        <mxCell id="_FZ4FKYjwLCIZygCdRig-85" style="edgeStyle=orthogonalEdgeStyle;rounded=0;orthogonalLoop=1;jettySize=auto;html=1;entryX=0.5;entryY=0;entryDx=0;entryDy=0;strokeWidth=2;" edge="1" parent="1" source="_FZ4FKYjwLCIZygCdRig-78" target="_FZ4FKYjwLCIZygCdRig-79">
          <mxGeometry relative="1" as="geometry" />
        </mxCell>
        <mxCell id="_FZ4FKYjwLCIZygCdRig-78" value="Backend LB" style="rounded=0;whiteSpace=wrap;html=1;dashed=1;fillColor=none;align=left;verticalAlign=top;" vertex="1" parent="1">
          <mxGeometry x="260" y="360" width="580" height="60" as="geometry" />
        </mxCell>
        <mxCell id="_FZ4FKYjwLCIZygCdRig-86" style="edgeStyle=orthogonalEdgeStyle;rounded=0;orthogonalLoop=1;jettySize=auto;html=1;strokeWidth=2;" edge="1" parent="1" source="_FZ4FKYjwLCIZygCdRig-79" target="_FZ4FKYjwLCIZygCdRig-80">
          <mxGeometry relative="1" as="geometry" />
        </mxCell>
        <mxCell id="_FZ4FKYjwLCIZygCdRig-79" value="Backend" style="rounded=0;whiteSpace=wrap;html=1;dashed=1;fillColor=none;align=left;verticalAlign=top;" vertex="1" parent="1">
          <mxGeometry x="260" y="480" width="580" height="100" as="geometry" />
        </mxCell>
        <mxCell id="_FZ4FKYjwLCIZygCdRig-80" value="DB" style="rounded=0;whiteSpace=wrap;html=1;dashed=1;fillColor=none;align=left;verticalAlign=top;" vertex="1" parent="1">
          <mxGeometry x="260" y="630" width="580" height="70" as="geometry" />
        </mxCell>
        <mxCell id="_FZ4FKYjwLCIZygCdRig-83" style="edgeStyle=orthogonalEdgeStyle;rounded=0;orthogonalLoop=1;jettySize=auto;html=1;exitX=0.5;exitY=1;exitDx=0;exitDy=0;entryX=0.5;entryY=0;entryDx=0;entryDy=0;strokeWidth=2;" edge="1" parent="1" source="_FZ4FKYjwLCIZygCdRig-77" target="_FZ4FKYjwLCIZygCdRig-78">
          <mxGeometry relative="1" as="geometry" />
        </mxCell>
        <mxCell id="_FZ4FKYjwLCIZygCdRig-89" value="" style="aspect=fixed;sketch=0;html=1;dashed=0;whitespace=wrap;verticalLabelPosition=bottom;verticalAlign=top;fillColor=#2875E2;strokeColor=#ffffff;points=[[0.005,0.63,0],[0.1,0.2,0],[0.9,0.2,0],[0.5,0,0],[0.995,0.63,0],[0.72,0.99,0],[0.5,1,0],[0.28,0.99,0]];shape=mxgraph.kubernetes.icon2;kubernetesLabel=1;prIcon=kubelet" vertex="1" parent="1">
          <mxGeometry x="800" y="250" width="29.17" height="28" as="geometry" />
        </mxCell>
        <mxCell id="_FZ4FKYjwLCIZygCdRig-90" value="" style="aspect=fixed;sketch=0;html=1;dashed=0;whitespace=wrap;verticalLabelPosition=bottom;verticalAlign=top;fillColor=#2875E2;strokeColor=#ffffff;points=[[0.005,0.63,0],[0.1,0.2,0],[0.9,0.2,0],[0.5,0,0],[0.995,0.63,0],[0.72,0.99,0],[0.5,1,0],[0.28,0.99,0]];shape=mxgraph.kubernetes.icon2;kubernetesLabel=1;prIcon=kubelet" vertex="1" parent="1">
          <mxGeometry x="440" y="500" width="29.17" height="28" as="geometry" />
        </mxCell>
        <mxCell id="_FZ4FKYjwLCIZygCdRig-91" value="" style="aspect=fixed;sketch=0;html=1;dashed=0;whitespace=wrap;verticalLabelPosition=bottom;verticalAlign=top;fillColor=#2875E2;strokeColor=#ffffff;points=[[0.005,0.63,0],[0.1,0.2,0],[0.9,0.2,0],[0.5,0,0],[0.995,0.63,0],[0.72,0.99,0],[0.5,1,0],[0.28,0.99,0]];shape=mxgraph.kubernetes.icon2;kubernetesLabel=1;prIcon=kubelet" vertex="1" parent="1">
          <mxGeometry x="800" y="500" width="29.17" height="28" as="geometry" />
        </mxCell>
      </root>
    </mxGraphModel>
  </diagram>
</mxfile>
